<?xml version="1.0" encoding="UTF-8" standalone="no"?>
<!-- Generator: Adobe Illustrator 12.0.1, SVG Export Plug-In . SVG Version: 6.00 Build 51448)  -->

<svg
   xmlns:dc="http://purl.org/dc/elements/1.1/"
   xmlns:cc="http://creativecommons.org/ns#"
   xmlns:rdf="http://www.w3.org/1999/02/22-rdf-syntax-ns#"
   xmlns:svg="http://www.w3.org/2000/svg"
   xmlns="http://www.w3.org/2000/svg"
   xmlns:sodipodi="http://sodipodi.sourceforge.net/DTD/sodipodi-0.dtd"
   xmlns:inkscape="http://www.inkscape.org/namespaces/inkscape"
   version="1.1"
   id="Layer_1"
   width="11.847"
   height="11.845"
   viewBox="0 0 11.847 11.845"
   overflow="visible"
   enable-background="new 0 0 11.847 11.845"
   xml:space="preserve"
   inkscape:version="0.48.2 r9819"
   sodipodi:docname="pencil.svg"
   inkscape:export-filename="C:\Projects\Notebook\Notebook\Notebook\Images\pencil.png"
   inkscape:export-xdpi="119.95002"
   inkscape:export-ydpi="119.95002"><metadata
   id="metadata4550"><rdf:RDF><cc:Work
       rdf:about=""><dc:format>image/svg+xml</dc:format><dc:type
         rdf:resource="http://purl.org/dc/dcmitype/StillImage" /><dc:title></dc:title></cc:Work></rdf:RDF></metadata><defs
   id="defs4548">
	
	

			
			
		</defs><sodipodi:namedview
   pagecolor="#ffffff"
   bordercolor="#666666"
   borderopacity="1"
   objecttolerance="10"
   gridtolerance="10"
   guidetolerance="10"
   inkscape:pageopacity="0"
   inkscape:pageshadow="2"
   inkscape:window-width="1440"
   inkscape:window-height="844"
   id="namedview4546"
   showgrid="false"
   inkscape:zoom="19.924018"
   inkscape:cx="-2.0568179"
   inkscape:cy="5.9225001"
   inkscape:window-x="-4"
   inkscape:window-y="-4"
   inkscape:window-maximized="1"
   inkscape:current-layer="g4536" />
<polygon
   style="stroke:#000000;stroke-width:0.352"
   id="polygon4534"
   points="0.607,11.247 1.515,10.932 0.915,10.331 "
   transform="matrix(0.91534758,0,0,0.91951634,0.63087293,0.37253659)" /><g
   id="g4536">
		<path
   d="M 11.201307,2.7651181 C 11.40726,2.558227 11.383461,2.2014546 11.151878,1.9697364 L 9.885952,0.69712586 C 9.6543694,0.46448823 9.3010453,0.44150032 9.0941767,0.64747197 L 7.9792834,1.7656039 C 7.89141,1.8529579 7.7724148,1.972495 7.7724148,1.972495 L 2.0002329,7.7737236 0.849641,11.044443 4.1073631,9.8913697 9.8822908,4.0901411 c 0,0 0.1171645,-0.1176981 0.2050382,-0.2041325 l 1.113978,-1.1208905 z"
   id="path4544"
   inkscape:connector-curvature="0"
   style="fill:#ffc400;fill-opacity:1;stroke:#000000;stroke-width:0.49999999;stroke-miterlimit:4;stroke-dasharray:none"
   inkscape:export-xdpi="119.95002"
   inkscape:export-ydpi="119.95002" /><path
   style="fill:#ffff80;fill-opacity:1;stroke:#000000;stroke-width:0.49999999;stroke-miterlimit:4;stroke-dasharray:none"
   inkscape:connector-curvature="0"
   id="path4538"
   d="m 4.1339081,9.8683818 c 0,0 -0.6736958,-0.3264282 -1.2238197,-0.8551502 C 2.3087051,8.440373 2.0258626,7.7488967 2.0258626,7.7488967 L 7.7980445,1.9467485 c 0,0 0.4823882,0.7687157 0.9418927,1.2349106 0.5125946,0.51309 1.1679836,0.8836551 1.1679836,0.8836551 L 4.1339081,9.8683818 z" />
		<path
   d="m 9.4438395,4.531509 c 0,0 -0.5208328,-0.479068 -1.0599726,-1.0151461 C 7.7952985,2.9315506 7.3339633,2.4129433 7.3339633,2.4129433 L 8.1376385,1.609286 c 0,0 0.6013833,0.6491786 1.0636339,1.1107758 0.508933,0.5140097 1.0453266,1.0077899 1.0453266,1.0077899 L 9.4438395,4.531509 z"
   id="path4542"
   inkscape:connector-curvature="0"
   style="stroke:#000000;stroke-width:0.27275181" />
	</g>
</svg>