<?xml version="1.0" encoding="utf-8"?>
<!-- Created with SilverNote v1.0 (http://www.silver-note.com/) -->
<svg version="1.1" xmlns="http://www.w3.org/2000/svg">
  <g class="locked" fill="none">
    <g class="thumb" fill="none" style="display:none;">
      <rect stroke-width="2" stroke="rgb(51,51,51)" fill="white" x="0" y="0" width="100" height="20" />
      <path class="fill-locked" stroke-width="2" stroke="rgb(51,51,51)" fill="none" d="M20,0 L20,20M13,5 L7,10 13,15M80,0 L80,20M87,5 L93,10 87,15" />
      <rect class="fill-locked stroke-locked" stroke-width="0" stroke="none" fill="lightgray" x="25" y="1" width="25" height="18" />
    </g>
    <rect stroke-width="2" stroke="rgb(51,51,51)" fill="white" x="0" y="0" width="150" height="20" />
    <path class="fill-locked" stroke-width="2" stroke="rgb(51,51,51)" fill="none" layout="var c = Math.min(bounds.width,bounds.height);this.setAttribute('d','M'+(bounds.x+c)+','+bounds.y+' L'+(bounds.x+c)+','+(bounds.y+bounds.height)+' M'+(bounds.x+c*.65)+','+(bounds.y+bounds.height*.25)+' '+(bounds.x+c*.35)+','+(bounds.y+bounds.height*.5)+' '+(bounds.x+c*.65)+','+(bounds.y+bounds.height*.75)+' M'+(bounds.x+bounds.width-c)+','+bounds.y+' L'+(bounds.x+bounds.width-c)+','+(bounds.y+bounds.height)+' M'+(bounds.x+bounds.width-c*.65)+','+(bounds.y+bounds.height*.25)+' '+(bounds.x+bounds.width-c*.35)+','+(bounds.y+bounds.height*.5)+' '+(bounds.x+bounds.width-c*.65)+','+(bounds.y+bounds.height*.75))" d="M20,0 L20,20M13,5 L7,10 13,15M130,0 L130,20M137,5 L143,10 137,15" />
    <rect class="fill-locked stroke-locked" stroke-width="0" stroke="none" fill="lightgray" layout="var c = Math.min(bounds.width,bounds.height);this.setAttribute('x',bounds.x+c*1.5);this.setAttribute('y',bounds.y+1);this.setAttribute('height',Math.max(bounds.height-2, 0));this.setAttribute('width', Math.max(Math.min(50, bounds.width*.5 - 30),0))" x="30" y="1" width="45" height="18" />
    <line class="snap" x1="0" y1="0" x2="0" y2="0" />
    <line class="snap" x1="150" y1="0" x2="150" y2="0" />
    <line class="snap" x1="0" y1="20" x2="0" y2="20" />
    <line class="snap" x1="150" y1="20" x2="150" y2="20" />
  </g>
</svg>