<?xml version="1.0" encoding="utf-8"?>
<!-- Created with SilverNote v1.0 (http://www.silver-note.com/) -->
<svg version="1.1" xmlns="http://www.w3.org/2000/svg">
  <g class="locked" fill="none">
    <g class="thumb" style="display:none" fill="none">
      <rect stroke-width="2" stroke="rgb(51,51,51)" fill="white" x="0" y="0" width="20" height="100" />
      <path stroke-width="2" stroke="rgb(51,51,51)" fill="none" d="M0,20 L20,20M5,13 L10,7 15,13M0,80 L20,80M5,87 L10,93 15,87" />
      <rect stroke-width="0" stroke="none" fill="lightgray" x="1" y="25" width="18" height="25" />
    </g>
    <rect stroke-width="2" stroke="rgb(51,51,51)" fill="white" x="0" y="0" width="20" height="150" />
    <path class="fill-locked" stroke-width="2" stroke="rgb(51,51,51)" fill="none" layout="var c = Math.min(bounds.width,bounds.height);this.setAttribute('d','M'+(bounds.x)+','+(bounds.y+c)+' L'+(bounds.x+bounds.width)+','+(bounds.y+c)+' M'+(bounds.x+bounds.width*.25)+','+(bounds.y+c*.65)+' '+(bounds.x+bounds.width*.5)+','+(bounds.y+c*.35)+' '+(bounds.x+bounds.width*.75)+','+(bounds.y+c*.65)+' M'+bounds.x+','+(bounds.y+bounds.height-c)+' L'+(bounds.x+bounds.width)+','+(bounds.y+bounds.height-c)+' M'+(bounds.x+bounds.width*.25)+','+(bounds.y+bounds.height-c*.65)+' '+(bounds.x+bounds.width*.5)+','+(bounds.y+bounds.height-c*.35)+' '+(bounds.x+bounds.width*.75)+','+(bounds.y+bounds.height-c*.65))" d="M0,20 L20,20M5,13 L10,7 15,13M0,130 L20,130M5,137 L10,143 15,137" />
    <rect class="fill-locked stroke-locked" stroke-width="0" stroke="none" fill="lightgray" layout="var c = Math.min(bounds.width,bounds.height);this.setAttribute('x',bounds.x+1);this.setAttribute('y',bounds.y+c*1.5);this.setAttribute('height',Math.max(Math.min(50, bounds.height*.5 - 30),0));this.setAttribute('width',Math.max(bounds.width-2, 0))" x="1" y="30" width="18" height="45" />
    <line class="snap" x1="20" y1="0" x2="20" y2="0" />
    <line class="snap" x1="20" y1="150" x2="20" y2="150" />
    <line class="snap" x1="0" y1="0" x2="0" y2="0" />
    <line class="snap" x1="0" y1="150" x2="0" y2="150" />
  </g>
</svg>