<?xml version="1.0" encoding="utf-8"?>
<!-- Created with SilverNote v1.0 (http://www.silver-note.com/) -->
<svg version="1.1" xmlns="http://www.w3.org/2000/svg">
  <g class="locked" fill="none">
    <path stroke-width="1" stroke="rgb(51,51,51)" fill="white" d="M13.731914881108,16.361038678062 C13.263501418718,16.725821100366 9.654580636071,13.696582831234 9.070731784355,13.703579586097 C8.486882962998,13.71057634096 4.945200065693,16.8255059998791 4.468926562856,16.472044300256 C3.992652799803,16.118582600633 5.63050209651,11.590742562685 5.443724065626,11.011833009618 C5.256945991372,10.432923501935 1.331559372864,7.870653424981 1.505620101697,7.287419677172 C1.679680396833,6.704185883978 6.300847480956,6.93506486139 6.7692611168241,6.570282348316 C7.237674752692,6.20549983524199 8.353335400837,1.507000175174 8.937184235205,1.500003692619 C9.5210330695739,1.493006756218 10.739222197574,6.163538049886 11.215495830519,6.516999613355 C11.6917694200951,6.870461176825 16.30667207358,6.528898762154 16.493450061095,7.10780831522101 C16.68022804861,7.68671786828899 12.811943279056,10.342385995057 12.63788289718,10.925619788251 C12.463822558674,11.50885353606 14.200328777193,15.996255801911 13.731914881108,16.361038678062z" />
    <line class="snap" x1="0" y1="0" x2="0" y2="0" />
    <line class="snap" x1="20" y1="0" x2="20" y2="0" />
    <line class="snap" x1="20" y1="20" x2="20" y2="20" />
    <line class="snap" x1="0" y1="20" x2="0" y2="20" />
  </g>
</svg>