<?xml version="1.0" encoding="utf-8"?>
<!-- Created with SilverNote v1.0 (http://www.silver-note.com/) -->
<svg version="1.1" xmlns="http://www.w3.org/2000/svg">
  <defs>
    <filter class="dropShadow" id="kl5q02wgutc">
      <feGaussianBlur in="SourceAlpha" stdDeviation="1" result="blurResult" />
      <feOffset in="blurResult" dx="2" dy="2" result="offsetResult" />
      <feMerge>
        <feMergeNode in="offsetResult" />
        <feMergeNode in="SourceGraphic" />
      </feMerge>
    </filter>
  </defs>
  <g class="locked" fill="none">
    <rect stroke-width="2" stroke="rgb(51,51,51)" fill="white" filter="url(#kl5q02wgutc)" x="100" y="70" width="120" height="80" />
    <text x="100" y="70" placeholder="Process" class="autofocus" font-family="Calibri, Arial, Tahoma, Geneva, Helvetica, Sans-serif" font-size="16" font-weight="normal" font-style="normal" text-decoration="none" baseline-shift="baseline" href="" style="width:120px;height:80px;vertical-align:middle;display:block;text-align:center;" />
    <line class="snap" x1="220" y1="150" x2="220" y2="150" />
    <line class="snap" x1="220" y1="70" x2="220" y2="70" />
    <line class="snap" x1="100" y1="70" x2="100" y2="70" />
    <line class="snap" x1="100" y1="150" x2="100" y2="150" />
    <line class="snap" x1="160" y1="70" x2="160" y2="70" />
    <line class="snap" x1="220" y1="110" x2="220" y2="110" />
    <line class="snap" x1="160" y1="150" x2="160" y2="150" />
    <line class="snap" x1="100" y1="110" x2="100" y2="110" />
    <line class="snap" x1="220" y1="90" x2="220" y2="90" />
    <line class="snap" x1="220" y1="130" x2="220" y2="130" />
    <line class="snap" x1="180" y1="150" x2="180" y2="150" />
    <line class="snap" x1="140" y1="150" x2="140" y2="150" />
    <line class="snap" x1="180" y1="70" x2="180" y2="70" />
    <line class="snap" x1="140" y1="70" x2="140" y2="70" />
    <line class="snap" x1="100" y1="90" x2="100" y2="90" />
    <line class="snap" x1="100" y1="130" x2="100" y2="130" />
  </g>
</svg>