<?xml version="1.0" encoding="utf-8"?>
<!-- Created with SilverNote v1.0 (http://www.silver-note.com/) -->
<svg version="1.1" xmlns="http://www.w3.org/2000/svg">
  <defs>
    <filter class="dropShadow" id="nn4tzo0b1to">
      <feGaussianBlur in="SourceAlpha" stdDeviation="1" result="blurResult" />
      <feOffset in="blurResult" dx="2" dy="2" result="offsetResult" />
      <feMerge>
        <feMergeNode in="offsetResult" />
        <feMergeNode in="SourceGraphic" />
      </feMerge>
    </filter>
  </defs>
  <g class="locked" fill="none">
    <path stroke-width="2" stroke="rgb(51,51,51)" fill="white" filter="url(#nn4tzo0b1to)" d="M426,80 L474,80 C486.861557006836,80 498.746131896973,85.717966556549 505.17691040039,95 511.6077003479,104.282031059266 511.607688903809,115.717968940735 505.17691040039,125 498.746131896973,134.282035827636 486.861557006836,140 474,140 L426,140 C413.13843870163,140 401.253863811493,134.282031059265 394.823083877564,125 388.392304837704,115.717968940735 388.392305910587,104.282031059266 394.823085665703,94.999997615814 401.253867387772,85.717964172364 413.13843870163,80 426,80z" />
    <text x="390" y="80" placeholder="Start/end" class="autofocus" font-family="Calibri, Arial, Tahoma, Geneva, Helvetica, Sans-serif" font-size="16" font-weight="normal" font-style="normal" text-decoration="none" baseline-shift="baseline" href="" style="width:120px;height:60px;vertical-align:middle;display:block;text-align:center;" />
    <line class="snap" x1="390" y1="110" x2="390" y2="110" />
    <line class="snap" x1="510" y1="110" x2="510" y2="110" />
    <line class="snap" x1="450" y1="80" x2="450" y2="80" />
    <line class="snap" x1="450" y1="140" x2="450" y2="140" />
    <line class="snap" x1="470" y1="80" x2="470" y2="80" />
    <line class="snap" x1="430" y1="80" x2="430" y2="80" />
    <line class="snap" x1="470" y1="140" x2="470" y2="140" />
    <line class="snap" x1="430" y1="140" x2="430" y2="140" />
  </g>
</svg>