<?xml version="1.0" encoding="utf-8"?>
<!-- Created with SilverNote v1.0 (http://www.silver-note.com/) -->
<svg version="1.1" xmlns="http://www.w3.org/2000/svg">
  <defs>
    <filter class="dropShadow" id="qva30prnlmf">
      <feGaussianBlur in="SourceAlpha" stdDeviation="1" result="blurResult" />
      <feOffset in="blurResult" dx="2" dy="2" result="offsetResult" />
      <feMerge>
        <feMergeNode in="offsetResult" />
        <feMergeNode in="SourceGraphic" />
      </feMerge>
    </filter>
  </defs>
  <g class="locked" fill="none">
    <rect stroke-width="2" stroke="rgb(51,51,51)" fill="white" filter="url(#qva30prnlmf)" x="100" y="360" width="120" height="80" />
    <line stroke-width="2" stroke="rgb(51,51,51)" fill="none" x1="210" y1="360" x2="210" y2="440" />
    <line stroke-width="2" stroke="rgb(51,51,51)" fill="none" x1="110" y1="360" x2="110" y2="440" />
    <text x="110" y="360" placeholder="Subroutine" class="autofocus" font-family="Calibri, Arial, Tahoma, Geneva, Helvetica, Sans-serif" font-size="16" font-weight="normal" font-style="normal" text-decoration="none" baseline-shift="baseline" href="" style="width:100px;height:80px;vertical-align:middle;display:block;text-align:center;" />
    <line class="snap" x1="220" y1="440" x2="220" y2="440" />
    <line class="snap" x1="220" y1="360" x2="220" y2="360" />
    <line class="snap" x1="100" y1="360" x2="100" y2="360" />
    <line class="snap" x1="100" y1="440" x2="100" y2="440" />
    <line class="snap" x1="160" y1="360" x2="160" y2="360" />
    <line class="snap" x1="220" y1="400" x2="220" y2="400" />
    <line class="snap" x1="160" y1="440" x2="160" y2="440" />
    <line class="snap" x1="100" y1="400" x2="100" y2="400" />
    <line class="snap" x1="220" y1="380" x2="220" y2="380" />
    <line class="snap" x1="220" y1="420" x2="220" y2="420" />
    <line class="snap" x1="180" y1="440" x2="180" y2="440" />
    <line class="snap" x1="140" y1="440" x2="140" y2="440" />
    <line class="snap" x1="180" y1="360" x2="180" y2="360" />
    <line class="snap" x1="140" y1="360" x2="140" y2="360" />
    <line class="snap" x1="100" y1="380" x2="100" y2="380" />
    <line class="snap" x1="100" y1="420" x2="100" y2="420" />
  </g>
</svg>