<?xml version="1.0" encoding="utf-8"?>
<!-- Created with SilverNote v1.0 (http://www.silver-note.com/) -->
<svg version="1.1" xmlns="http://www.w3.org/2000/svg">
  <defs>
    <filter class="dropShadow" id="3kwvz0uh20r">
      <feGaussianBlur in="SourceAlpha" stdDeviation="1" result="blurResult" />
      <feOffset in="blurResult" dx="2" dy="2" result="offsetResult" />
      <feMerge>
        <feMergeNode in="offsetResult" />
        <feMergeNode in="SourceGraphic" />
      </feMerge>
    </filter>
  </defs>
  <g class="locked" fill="none">
    <path stroke-width="2" stroke="rgb(51,51,51)" fill="white" filter="url(#3kwvz0uh20r)" d="M670,210 L670,290 Q700,310 730,290 Q760,270 790,290 L790,210z" />
    <text x="670" y="210" placeholder="Document" class="autofocus" font-family="Calibri, Arial, Tahoma, Geneva, Helvetica, Sans-serif" font-size="16" font-weight="normal" font-style="normal" text-decoration="none" baseline-shift="baseline" href="" style="width:120px;height:70px;vertical-align:middle;display:block;text-align:center;" />
    <line class="snap" x1="730" y1="210" x2="730" y2="210" />
    <line class="snap" x1="730" y1="290" x2="730" y2="290" />
    <line class="snap" x1="700" y1="300" x2="700" y2="300" />
    <line class="snap" x1="760" y1="280" x2="760" y2="280" />
    <line class="snap" x1="790" y1="250" x2="790" y2="250" />
    <line class="snap" x1="670" y1="250" x2="670" y2="250" />
    <line class="snap" x1="750" y1="210" x2="750" y2="210" />
    <line class="snap" x1="710" y1="210" x2="710" y2="210" />
    <line class="snap" x1="790" y1="230" x2="790" y2="230" />
    <line class="snap" x1="790" y1="270" x2="790" y2="270" />
    <line class="snap" x1="670" y1="230" x2="670" y2="230" />
    <line class="snap" x1="670" y1="270" x2="670" y2="270" />
  </g>
</svg>