<?xml version="1.0" encoding="utf-8"?>
<!-- Created with SilverNote v1.0 (http://www.silver-note.com/) -->
<svg version="1.1" width="60" height="50" xmlns="http://www.w3.org/2000/svg">
  <g class="locked dragdraw" fill="none">
    <path stroke-width="2" stroke="black" fill="none" d="M30,0 L70,0 C80.7179641723635,0 90.6217765808105,5.717966556549 95.980758666992,15 101.339750289917,24.2820310592652 101.339740753174,35.717968940735 95.980758666992,45 90.6217765808105,54.2820358276364 80.7179641723635,60 70,60 L30,60 C19.282032251358,60 9.37821984291075,54.282031059265 4.01923656463625,45 -1.33974596858025,35.717968940735 -1.33974507451057,24.2820310592652 4.01923805475225,14.9999976158142 9.378222823143,5.7179641723634 19.282032251358,0 30,0z" />
    <line class="snap" x1="0" y1="0" x2="0" y2="0" />
    <line class="snap" x1="100" y1="0" x2="100" y2="0" />
    <line class="snap" x1="0" y1="60" x2="0" y2="60" />
    <line class="snap" x1="100" y1="60" x2="100" y2="60" />
  </g>
</svg>
