<?xml version="1.0" encoding="utf-8"?>
<!--Created with SilverNote v1.0.4627.25486 (http://www.silver-note.com/)-->
<svg version="1.1" xmlns="http://www.w3.org/2000/svg">
  <defs>
    <marker id="resource0" fill="rgb(0,0,0)" refX="0" refY="5" markerWidth="10" markerHeight="10" markerUnits="userSpaceOnUse" orient="auto">
      <path d="M9.9898175756025,2.06298995664156E-08 C9.963268577628,2.06298995664156E-08 -0.0100176471849007,4.9998898030337 8.35205019988905E-06,5.008173231718 0.0336479209122,5.0359659463823 9.9923055754126,10.0091378284221 9.9959971465596,9.9999875425832 9.9984082892328,9.994010828216 9.5146983375655,8.8671696700069 8.9210862142831,7.4958961227534 L7.841791182341,5.002671231643 8.9208957142976,2.5134983405879 C9.5144029947309,1.1444530362218 10.000000003397,0.0188520208866994 10.000000003397,0.0121625922242004 10.000000003397,0.0054731635616001 9.9954178608895,2.06298995664156E-08 9.9898175756025,2.06298995664156E-08z" stroke-width="2" stroke="none" fill="rgb(0,0,0)" />
    </marker>
    <marker id="resource1" fill="rgb(0,0,0)" refX="10" refY="5" markerWidth="10" markerHeight="10" markerUnits="userSpaceOnUse" orient="auto">
      <path d="M0.0101824243975006,2.06298995664156E-08 C0.0367314223720001,2.06298995664156E-08 10.0100176471849,4.9998898030337 9.9999916479498,5.008173231718 9.9663520790878,5.0359659463823 0.00769442458740066,10.0091378284221 0.00400285344040086,9.9999875425832 0.00159171076719922,9.994010828216 0.4853016624345,8.8671696700069 1.0789137857169,7.4958961227534 L2.158208817659,5.002671231643 1.0791042857024,2.5134983405879 C0.485597005269099,1.1444530362218 -3.39704087082282E-09,0.0188520208866994 -3.39704087082282E-09,0.0121625922242004 -3.39704087082282E-09,0.0054731635616001 0.00458213911050009,2.06298995664156E-08 0.0101824243975006,2.06298995664156E-08z" stroke-width="2" stroke="none" fill="rgb(0,0,0)" />
    </marker>
  </defs>
  <polyline class="routedLine" stroke-width="2" stroke="rgb(0,0,0)" fill="none" points="0,4 12,4 12,12 24,12" marker-start="url(#resource0)" marker-end="url(#resource1)" />
</svg>