<?xml version="1.0" encoding="UTF-8" standalone="no"?>
<!-- Created with Inkscape (http://www.inkscape.org/) -->

<svg
   xmlns:dc="http://purl.org/dc/elements/1.1/"
   xmlns:cc="http://creativecommons.org/ns#"
   xmlns:rdf="http://www.w3.org/1999/02/22-rdf-syntax-ns#"
   xmlns:svg="http://www.w3.org/2000/svg"
   xmlns="http://www.w3.org/2000/svg"
   xmlns:sodipodi="http://sodipodi.sourceforge.net/DTD/sodipodi-0.dtd"
   xmlns:inkscape="http://www.inkscape.org/namespaces/inkscape"
   width="16px"
   height="16px"
   id="svg4699"
   version="1.1"
   inkscape:version="0.48.2 r9819"
   inkscape:export-filename="C:\Projects\SilverNote\SilverNote\Icon\icon_16x16.png"
   inkscape:export-xdpi="90"
   inkscape:export-ydpi="90"
   sodipodi:docname="icon_16x16.svg">
  <defs
     id="defs4701">
    <linearGradient
       x1="0"
       y1="0"
       x2="1"
       y2="0"
       gradientUnits="userSpaceOnUse"
       gradientTransform="matrix(0,-12.061523,-12.061523,0,33.036621,151.12402)"
       spreadMethod="pad"
       id="linearGradient3179">
      <stop
         style="stop-opacity:1;stop-color:#96989b"
         offset="0"
         id="stop3181" />
      <stop
         style="stop-opacity:1;stop-color:#373535"
         offset="0.472397"
         id="stop3183" />
      <stop
         style="stop-opacity:1;stop-color:#373535"
         offset="0.472397"
         id="stop3185" />
      <stop
         style="stop-opacity:1;stop-color:#373535"
         offset="1"
         id="stop3187" />
    </linearGradient>
    <clipPath
       clipPathUnits="userSpaceOnUse"
       id="clipPath2999">
      <path
         inkscape:connector-curvature="0"
         d="M 0,792 612,792 612,0 0,0 0,792 z"
         id="path3001" />
    </clipPath>
    <clipPath
       clipPathUnits="userSpaceOnUse"
       id="clipPath3007">
      <path
         inkscape:connector-curvature="0"
         d="m 24.1177,154.125 16.709,0 0,-16.709 -16.709,0 0,16.709 z"
         id="path3009" />
    </clipPath>
    <clipPath
       clipPathUnits="userSpaceOnUse"
       id="clipPath3043">
      <path
         inkscape:connector-curvature="0"
         d="m 24.4722,151.144 16,0 0,-0.284 -16,0 0,0.284 z"
         id="path3045" />
    </clipPath>
    <clipPath
       clipPathUnits="userSpaceOnUse"
       id="clipPath3059">
      <path
         inkscape:connector-curvature="0"
         d="m 24.4722,147.656 16,0 0,-0.283 -16,0 0,0.283 z"
         id="path3061" />
    </clipPath>
    <clipPath
       clipPathUnits="userSpaceOnUse"
       id="clipPath3075">
      <path
         inkscape:connector-curvature="0"
         d="m 24.4722,149.4 16,0 0,-0.283 -16,0 0,0.283 z"
         id="path3077" />
    </clipPath>
    <clipPath
       clipPathUnits="userSpaceOnUse"
       id="clipPath3091">
      <path
         inkscape:connector-curvature="0"
         d="m 24.4722,145.912 16,0 0,-0.283 -16,0 0,0.283 z"
         id="path3093" />
    </clipPath>
    <clipPath
       clipPathUnits="userSpaceOnUse"
       id="clipPath3107">
      <path
         inkscape:connector-curvature="0"
         d="m 24.4722,144.169 16,0 0,-0.283 -16,0 0,0.283 z"
         id="path3109" />
    </clipPath>
    <clipPath
       clipPathUnits="userSpaceOnUse"
       id="clipPath3123">
      <path
         inkscape:connector-curvature="0"
         d="m 24.4722,142.425 16,0 0,-0.283 -16,0 0,0.283 z"
         id="path3125" />
    </clipPath>
    <clipPath
       clipPathUnits="userSpaceOnUse"
       id="clipPath3139">
      <path
         inkscape:connector-curvature="0"
         d="m 24.4722,140.681 16,0 0,-0.284 -16,0 0,0.284 z"
         id="path3141" />
    </clipPath>
    <clipPath
       clipPathUnits="userSpaceOnUse"
       id="clipPath3155">
      <path
         inkscape:connector-curvature="0"
         d="m 24.4722,138.938 16,0 0,-0.284 -16,0 0,0.284 z"
         id="path3157" />
    </clipPath>
    <clipPath
       clipPathUnits="userSpaceOnUse"
       id="clipPath3007-1">
      <path
         inkscape:connector-curvature="0"
         d="m 24.1177,154.125 16.709,0 0,-16.709 -16.709,0 0,16.709 z"
         id="path3009-7" />
    </clipPath>
    <linearGradient
       x1="0"
       y1="0"
       x2="1"
       y2="0"
       gradientUnits="userSpaceOnUse"
       gradientTransform="matrix(0,-12.061523,-12.061523,0,33.036621,151.12402)"
       spreadMethod="pad"
       id="linearGradient3179-4">
      <stop
         style="stop-opacity:1;stop-color:#96989b"
         offset="0"
         id="stop3181-0" />
      <stop
         style="stop-opacity:1;stop-color:#373535"
         offset="0.472397"
         id="stop3183-9" />
      <stop
         style="stop-opacity:1;stop-color:#373535"
         offset="0.472397"
         id="stop3185-4" />
      <stop
         style="stop-opacity:1;stop-color:#373535"
         offset="1"
         id="stop3187-8" />
    </linearGradient>
  </defs>
  <sodipodi:namedview
     id="base"
     pagecolor="#ffffff"
     bordercolor="#666666"
     borderopacity="1.0"
     inkscape:pageopacity="0.0"
     inkscape:pageshadow="2"
     inkscape:zoom="15.696216"
     inkscape:cx="-6.3257427"
     inkscape:cy="5.2204009"
     inkscape:current-layer="layer1"
     showgrid="true"
     inkscape:grid-bbox="true"
     inkscape:document-units="px"
     inkscape:window-width="1440"
     inkscape:window-height="844"
     inkscape:window-x="-4"
     inkscape:window-y="-4"
     inkscape:window-maximized="1"
     inkscape:snap-to-guides="false"
     inkscape:snap-page="true"
     inkscape:snap-grids="false"
     inkscape:snap-bbox="true" />
  <metadata
     id="metadata4704">
    <rdf:RDF>
      <cc:Work
         rdf:about="">
        <dc:format>image/svg+xml</dc:format>
        <dc:type
           rdf:resource="http://purl.org/dc/dcmitype/StillImage" />
        <dc:title></dc:title>
      </cc:Work>
    </rdf:RDF>
  </metadata>
  <g
     id="layer1"
     inkscape:label="Layer 1"
     inkscape:groupmode="layer">
    <g
       style="fill:#ffffff;stroke:#666666;stroke-width:1.04737055;stroke-miterlimit:4;stroke-dasharray:none"
       clip-path="url(#clipPath3007-1)"
       id="g3013"
       transform="matrix(0.95756775,0,0,-0.95756807,-23.094331,147.58517)">
      <g
         transform="translate(40.4722,139.3027)"
         id="g3015"
         style="fill:#ffffff;stroke:#666666;stroke-width:1.04737055;stroke-miterlimit:4;stroke-dasharray:none">
        <path
           inkscape:connector-curvature="0"
           d="m 0,0 c 0,-0.846 -0.755,-1.532 -1.687,-1.532 l -12.626,0 C -15.244,-1.532 -16,-0.846 -16,0 l 0,12.936 c 0,0.845 0.756,1.532 1.687,1.532 l 12.626,0 C -0.755,14.468 0,13.781 0,12.936 L 0,0 z"
           style="fill:#ffffff;stroke:#666666;stroke-width:1.04737055;stroke-linecap:butt;stroke-linejoin:miter;stroke-miterlimit:4;stroke-opacity:1;stroke-dasharray:none"
           id="path3017" />
      </g>
    </g>
    <path
       style="fill:#000000;stroke:#b3b3b3;stroke-width:0.33345068px;stroke-linecap:butt;stroke-linejoin:miter;stroke-opacity:1"
       d="m 14.999564,7.6694111 -12.0040477,0"
       id="path3851-1-4"
       inkscape:connector-curvature="0"
       sodipodi:nodetypes="cc" />
    <path
       style="fill:#000000;stroke:#b3b3b3;stroke-width:0.33345068px;stroke-linecap:butt;stroke-linejoin:miter;stroke-opacity:1"
       d="m 14.999564,9.3366891 -12.0040477,0"
       id="path3851-1-0"
       inkscape:connector-curvature="0"
       sodipodi:nodetypes="cc" />
    <path
       style="fill:#000000;stroke:#b3b3b3;stroke-width:0.33345068px;stroke-linecap:butt;stroke-linejoin:miter;stroke-opacity:1"
       d="m 14.999564,2.667577 -12.0040477,0"
       id="path3851"
       inkscape:connector-curvature="0"
       sodipodi:nodetypes="cc" />
    <g
       id="g3019"
       transform="matrix(0.95268714,0,0,-0.95348124,2.2853669,2.7751016)">
      <path
         inkscape:connector-curvature="0"
         d="m 0,0 c 0,-0.354 -0.286,-0.64 -0.64,-0.64 -0.353,0 -0.64,0.286 -0.64,0.64 0,0.354 0.287,0.64 0.64,0.64 C -0.286,0.64 0,0.354 0,0"
         style="fill:#373535;fill-opacity:1;fill-rule:nonzero;stroke:none"
         id="path3021" />
    </g>
    <path
       style="fill:#000000;stroke:#b3b3b3;stroke-width:0.33345068px;stroke-linecap:butt;stroke-linejoin:miter;stroke-opacity:1"
       d="m 14.999564,4.3348551 -12.0040477,0"
       id="path3851-1"
       inkscape:connector-curvature="0"
       sodipodi:nodetypes="cc" />
    <path
       style="fill:#000000;stroke:#b3b3b3;stroke-width:0.33345068px;stroke-linecap:butt;stroke-linejoin:miter;stroke-opacity:1"
       d="m 14.999564,6.0021331 -12.0040477,0"
       id="path3851-1-7"
       inkscape:connector-curvature="0"
       sodipodi:nodetypes="cc" />
    <g
       id="g3023"
       transform="matrix(0.95268714,0,0,-0.95348124,2.2853669,5.6159986)">
      <path
         inkscape:connector-curvature="0"
         d="m 0,0 c 0,-0.354 -0.286,-0.641 -0.64,-0.641 -0.353,0 -0.64,0.287 -0.64,0.641 0,0.354 0.287,0.64 0.64,0.64 C -0.286,0.64 0,0.354 0,0"
         style="fill:#373535;fill-opacity:1;fill-rule:nonzero;stroke:none"
         id="path3025" />
    </g>
    <g
       id="g3027"
       transform="matrix(0.95268714,0,0,-0.95348124,2.2853669,8.4568959)">
      <path
         inkscape:connector-curvature="0"
         d="m 0,0 c 0,-0.354 -0.286,-0.64 -0.64,-0.64 -0.353,0 -0.64,0.286 -0.64,0.64 0,0.354 0.287,0.64 0.64,0.64 C -0.286,0.64 0,0.354 0,0"
         style="fill:#373535;fill-opacity:1;fill-rule:nonzero;stroke:none"
         id="path3029" />
    </g>
    <path
       style="fill:#000000;stroke:#b3b3b3;stroke-width:0.33345068px;stroke-linecap:butt;stroke-linejoin:miter;stroke-opacity:1"
       d="m 14.999564,11.003967 -12.0040477,0"
       id="path3851-1-9"
       inkscape:connector-curvature="0"
       sodipodi:nodetypes="cc" />
    <g
       id="g3031"
       transform="matrix(0.95268714,0,0,-0.95348124,2.2853669,11.298653)">
      <path
         inkscape:connector-curvature="0"
         d="m 0,0 c 0,-0.353 -0.286,-0.64 -0.64,-0.64 -0.353,0 -0.64,0.287 -0.64,0.64 0,0.354 0.287,0.641 0.64,0.641 C -0.286,0.641 0,0.354 0,0"
         style="fill:#373535;fill-opacity:1;fill-rule:nonzero;stroke:none"
         id="path3033" />
    </g>
    <path
       style="fill:#000000;stroke:#b3b3b3;stroke-width:0.33345068px;stroke-linecap:butt;stroke-linejoin:miter;stroke-opacity:1"
       d="m 14.999564,14.338523 -12.0040477,0"
       id="path3851-1-8"
       inkscape:connector-curvature="0"
       sodipodi:nodetypes="cc" />
    <g
       id="g3035"
       transform="matrix(0.95268714,0,0,-0.95348124,2.2853669,14.13955)">
      <path
         inkscape:connector-curvature="0"
         d="m 0,0 c 0,-0.354 -0.286,-0.64 -0.64,-0.64 -0.353,0 -0.64,0.286 -0.64,0.64 0,0.354 0.287,0.641 0.64,0.641 C -0.286,0.641 0,0.354 0,0"
         style="fill:#373535;fill-opacity:1;fill-rule:nonzero;stroke:none"
         id="path3037" />
    </g>
    <g
       style="fill:#000000;fill-opacity:1;stroke:#000000"
       id="g3073"
       transform="matrix(0.95268714,0,0,-0.95348124,-22.914827,147.01612)" />
    <path
       style="fill:#000000;stroke:#b3b3b3;stroke-width:0.33345068px;stroke-linecap:butt;stroke-linejoin:miter;stroke-opacity:1"
       d="m 14.999564,12.671245 -12.0040477,0"
       id="path3851-1-48"
       inkscape:connector-curvature="0"
       sodipodi:nodetypes="cc" />
    <g
       transform="matrix(0.95268714,0,0,-0.95348124,-23.094885,146.4321)"
       id="g3167">
      <g
         id="g3169">
        <g
           id="g3175">
          <g
             id="g3177">
            <path
               inkscape:connector-curvature="0"
               d="m 30.679,150.718 c -0.633,-0.269 -1.118,-0.664 -1.455,-1.181 l 0,0 c -0.337,-0.516 -0.505,-1.071 -0.505,-1.665 l 0,0 c 0,-0.923 0.358,-1.704 1.074,-2.346 l 0,0 c 0.508,-0.456 1.394,-0.839 2.656,-1.152 l 0,0 c 0.98,-0.244 1.608,-0.414 1.883,-0.509 l 0,0 c 0.404,-0.143 0.685,-0.311 0.848,-0.505 l 0,0 c 0.161,-0.193 0.242,-0.428 0.242,-0.704 l 0,0 c 0,-0.428 -0.192,-0.803 -0.577,-1.125 l 0,0 c -0.384,-0.32 -0.955,-0.48 -1.713,-0.48 l 0,0 c -0.716,0 -1.284,0.18 -1.705,0.54 l 0,0 c -0.422,0.361 -0.701,0.925 -0.839,1.694 l 0,0 -2.289,-0.223 c 0.153,-1.304 0.624,-2.297 1.415,-2.978 l 0,0 c 0.789,-0.68 1.92,-1.021 3.394,-1.021 l 0,0 c 1.013,0 1.858,0.142 2.537,0.425 l 0,0 c 0.678,0.284 1.203,0.717 1.574,1.3 l 0,0 c 0.37,0.583 0.557,1.209 0.557,1.876 l 0,0 c 0,0.737 -0.156,1.356 -0.466,1.856 l 0,0 c -0.31,0.501 -0.739,0.897 -1.287,1.185 l 0,0 c -0.55,0.289 -1.396,0.569 -2.541,0.84 l 0,0 c -1.145,0.269 -1.866,0.529 -2.163,0.78 l 0,0 c -0.233,0.195 -0.35,0.431 -0.35,0.706 l 0,0 c 0,0.303 0.125,0.543 0.374,0.724 l 0,0 c 0.387,0.28 0.922,0.421 1.606,0.421 l 0,0 c 0.662,0 1.159,-0.132 1.491,-0.393 l 0,0 c 0.331,-0.262 0.548,-0.693 0.648,-1.293 l 0,0 2.354,0.104 c -0.038,1.07 -0.426,1.927 -1.166,2.568 l 0,0 c -0.739,0.642 -1.84,0.962 -3.303,0.962 l 0,0 c -0.896,0 -1.66,-0.135 -2.294,-0.406"
               style="fill:url(#linearGradient3179-4);stroke:none"
               id="path3189" />
          </g>
        </g>
      </g>
    </g>
  </g>
</svg>
