<?xml version="1.0" encoding="UTF-8" standalone="no"?>
<!-- Created with Inkscape (http://www.inkscape.org/) -->

<svg
   xmlns:dc="http://purl.org/dc/elements/1.1/"
   xmlns:cc="http://creativecommons.org/ns#"
   xmlns:rdf="http://www.w3.org/1999/02/22-rdf-syntax-ns#"
   xmlns:svg="http://www.w3.org/2000/svg"
   xmlns="http://www.w3.org/2000/svg"
   xmlns:sodipodi="http://sodipodi.sourceforge.net/DTD/sodipodi-0.dtd"
   xmlns:inkscape="http://www.inkscape.org/namespaces/inkscape"
   width="128"
   height="128"
   id="svg6105"
   version="1.1"
   inkscape:version="0.48.4 r9939"
   sodipodi:docname="icon_19x19.svg"
   inkscape:export-filename="C:\Projects\SilverNote\SilverNote\Icon\icon_48x48.png"
   inkscape:export-xdpi="90"
   inkscape:export-ydpi="90">
  <defs
     id="defs6107">
    <clipPath
       clipPathUnits="userSpaceOnUse"
       id="clipPath3007">
      <path
         inkscape:connector-curvature="0"
         d="m 24.1177,154.125 16.709,0 0,-16.709 -16.709,0 0,16.709 z"
         id="path3009" />
    </clipPath>
    <clipPath
       clipPathUnits="userSpaceOnUse"
       id="clipPath3059">
      <path
         inkscape:connector-curvature="0"
         d="m 24.4722,147.656 16,0 0,-0.283 -16,0 0,0.283 z"
         id="path3061" />
    </clipPath>
    <clipPath
       clipPathUnits="userSpaceOnUse"
       id="clipPath3075">
      <path
         inkscape:connector-curvature="0"
         d="m 24.4722,149.4 16,0 0,-0.283 -16,0 0,0.283 z"
         id="path3077" />
    </clipPath>
    <clipPath
       clipPathUnits="userSpaceOnUse"
       id="clipPath3091">
      <path
         inkscape:connector-curvature="0"
         d="m 24.4722,145.912 16,0 0,-0.283 -16,0 0,0.283 z"
         id="path3093" />
    </clipPath>
    <clipPath
       clipPathUnits="userSpaceOnUse"
       id="clipPath3107">
      <path
         inkscape:connector-curvature="0"
         d="m 24.4722,144.169 16,0 0,-0.283 -16,0 0,0.283 z"
         id="path3109" />
    </clipPath>
    <clipPath
       clipPathUnits="userSpaceOnUse"
       id="clipPath3123">
      <path
         inkscape:connector-curvature="0"
         d="m 24.4722,142.425 16,0 0,-0.283 -16,0 0,0.283 z"
         id="path3125" />
    </clipPath>
    <clipPath
       clipPathUnits="userSpaceOnUse"
       id="clipPath3139">
      <path
         inkscape:connector-curvature="0"
         d="m 24.4722,140.681 16,0 0,-0.284 -16,0 0,0.284 z"
         id="path3141" />
    </clipPath>
    <clipPath
       clipPathUnits="userSpaceOnUse"
       id="clipPath3155">
      <path
         inkscape:connector-curvature="0"
         d="m 24.4722,138.938 16,0 0,-0.284 -16,0 0,0.284 z"
         id="path3157" />
    </clipPath>
    <clipPath
       clipPathUnits="userSpaceOnUse"
       id="clipPath3043">
      <path
         inkscape:connector-curvature="0"
         d="m 24.4722,151.144 16,0 0,-0.284 -16,0 0,0.284 z"
         id="path3045" />
    </clipPath>
    <linearGradient
       x1="0"
       y1="0"
       x2="1"
       y2="0"
       gradientUnits="userSpaceOnUse"
       gradientTransform="matrix(0,-12.061523,-12.061523,0,33.036621,151.12402)"
       spreadMethod="pad"
       id="linearGradient3179">
      <stop
         style="stop-opacity:1;stop-color:#96989b"
         offset="0"
         id="stop3181" />
      <stop
         style="stop-opacity:1;stop-color:#373535"
         offset="0.472397"
         id="stop3183" />
      <stop
         style="stop-opacity:1;stop-color:#373535"
         offset="0.472397"
         id="stop3185" />
      <stop
         style="stop-opacity:1;stop-color:#373535"
         offset="1"
         id="stop3187" />
    </linearGradient>
  </defs>
  <sodipodi:namedview
     id="base"
     pagecolor="#ffffff"
     bordercolor="#666666"
     borderopacity="1.0"
     inkscape:pageopacity="0.0"
     inkscape:pageshadow="2"
     inkscape:zoom="1"
     inkscape:cx="21.817353"
     inkscape:cy="124.13337"
     inkscape:current-layer="layer1"
     showgrid="true"
     inkscape:grid-bbox="true"
     inkscape:document-units="px"
     inkscape:window-width="1920"
     inkscape:window-height="1017"
     inkscape:window-x="-8"
     inkscape:window-y="-8"
     inkscape:window-maximized="1"
     inkscape:snap-global="true"
     inkscape:snap-bbox="true"
     inkscape:bbox-nodes="false"
     inkscape:snap-bbox-midpoints="false"
     inkscape:bbox-paths="false"
     showguides="true"
     inkscape:snap-grids="true"
     inkscape:snap-page="false"
     inkscape:snap-bbox-edge-midpoints="true"
     inkscape:snap-object-midpoints="true"
     inkscape:snap-nodes="true"
     showborder="true"
     fit-margin-top="0"
     fit-margin-left="0"
     fit-margin-right="0"
     fit-margin-bottom="0">
    <inkscape:grid
       type="xygrid"
       id="grid3849"
       empspacing="5"
       visible="true"
       enabled="true"
       snapvisiblegridlinesonly="true"
       originx="-0.071289601px"
       originy="2.9905121px" />
  </sodipodi:namedview>
  <metadata
     id="metadata6110">
    <rdf:RDF>
      <cc:Work
         rdf:about="">
        <dc:format>image/svg+xml</dc:format>
        <dc:type
           rdf:resource="http://purl.org/dc/dcmitype/StillImage" />
        <dc:title></dc:title>
      </cc:Work>
    </rdf:RDF>
  </metadata>
  <g
     id="layer1"
     inkscape:label="Layer 1"
     inkscape:groupmode="layer"
     transform="translate(-0.0712896,77.009487)">
    <g
       style="fill:#ffffff;stroke:#666666;stroke-width:1.04737055;stroke-miterlimit:4;stroke-dasharray:none"
       clip-path="url(#clipPath3007)"
       id="g3013"
       transform="matrix(7.6596136,0,0,-7.6621603,-184.60871,1103.8432)"
       inkscape:export-filename="C:\dev\SilverNote\SilverNote_WPF\SilverNote\Icon\icon_19x19.png"
       inkscape:export-xdpi="90"
       inkscape:export-ydpi="90">
      <g
         transform="translate(40.4722,139.3027)"
         id="g3015"
         style="fill:#ffffff;stroke:#666666;stroke-width:1.04737055;stroke-miterlimit:4;stroke-dasharray:none">
        <path
           inkscape:connector-curvature="0"
           d="m 0,0 c 0,-0.846 -0.755,-1.532 -1.687,-1.532 l -12.626,0 C -15.244,-1.532 -16,-0.846 -16,0 l 0,12.936 c 0,0.845 0.756,1.532 1.687,1.532 l 12.626,0 C -0.755,14.468 0,13.781 0,12.936 L 0,0 z"
           style="fill:#ffffff;stroke:#666666;stroke-width:1.04737055;stroke-linecap:butt;stroke-linejoin:miter;stroke-miterlimit:4;stroke-opacity:1;stroke-dasharray:none"
           id="path3017" />
      </g>
    </g>
    <path
       style="fill:#000000;stroke:#b3b3b3;stroke-width:2.66772509px;stroke-linecap:butt;stroke-linejoin:miter;stroke-opacity:1"
       d="m 120.10551,-15.716778 -96.020744,0"
       id="path3851-1-4"
       inkscape:connector-curvature="0"
       sodipodi:nodetypes="cc"
       inkscape:export-filename="C:\dev\SilverNote\SilverNote_WPF\SilverNote\Icon\icon_19x19.png"
       inkscape:export-xdpi="90"
       inkscape:export-ydpi="90" />
    <path
       style="fill:#000000;stroke:#b3b3b3;stroke-width:2.66772509px;stroke-linecap:butt;stroke-linejoin:miter;stroke-opacity:1"
       d="m 120.10551,-2.3757331 -96.020744,0"
       id="path3851-1-0"
       inkscape:connector-curvature="0"
       sodipodi:nodetypes="cc"
       inkscape:export-filename="C:\dev\SilverNote\SilverNote_WPF\SilverNote\Icon\icon_19x19.png"
       inkscape:export-xdpi="90"
       inkscape:export-ydpi="90" />
    <path
       style="fill:#000000;stroke:#b3b3b3;stroke-width:2.66772509px;stroke-linecap:butt;stroke-linejoin:miter;stroke-opacity:1"
       d="m 120.10551,-55.739884 -96.020744,0"
       id="path3851"
       inkscape:connector-curvature="0"
       sodipodi:nodetypes="cc"
       inkscape:export-filename="C:\dev\SilverNote\SilverNote_WPF\SilverNote\Icon\icon_19x19.png"
       inkscape:export-xdpi="90"
       inkscape:export-ydpi="90" />
    <g
       id="g3019"
       transform="matrix(7.6205736,0,0,-7.6294581,18.404259,-54.879502)"
       inkscape:export-filename="C:\dev\SilverNote\SilverNote_WPF\SilverNote\Icon\icon_19x19.png"
       inkscape:export-xdpi="90"
       inkscape:export-ydpi="90">
      <path
         inkscape:connector-curvature="0"
         d="m 0,0 c 0,-0.354 -0.286,-0.64 -0.64,-0.64 -0.353,0 -0.64,0.286 -0.64,0.64 0,0.354 0.287,0.64 0.64,0.64 C -0.286,0.64 0,0.354 0,0"
         style="fill:#373535;fill-opacity:1;fill-rule:nonzero;stroke:none"
         id="path3021" />
    </g>
    <path
       style="fill:#000000;stroke:#b3b3b3;stroke-width:2.66772509px;stroke-linecap:butt;stroke-linejoin:miter;stroke-opacity:1"
       d="m 120.10551,-42.398853 -96.020744,0"
       id="path3851-1"
       inkscape:connector-curvature="0"
       sodipodi:nodetypes="cc"
       inkscape:export-filename="C:\dev\SilverNote\SilverNote_WPF\SilverNote\Icon\icon_19x19.png"
       inkscape:export-xdpi="90"
       inkscape:export-ydpi="90" />
    <path
       style="fill:#000000;stroke:#b3b3b3;stroke-width:2.66772509px;stroke-linecap:butt;stroke-linejoin:miter;stroke-opacity:1"
       d="m 120.10551,-29.057818 -96.020744,0"
       id="path3851-1-7"
       inkscape:connector-curvature="0"
       sodipodi:nodetypes="cc"
       inkscape:export-filename="C:\dev\SilverNote\SilverNote_WPF\SilverNote\Icon\icon_19x19.png"
       inkscape:export-xdpi="90"
       inkscape:export-ydpi="90" />
    <g
       id="g3023"
       transform="matrix(7.6205736,0,0,-7.6294581,18.404259,-32.14754)"
       inkscape:export-filename="C:\dev\SilverNote\SilverNote_WPF\SilverNote\Icon\icon_19x19.png"
       inkscape:export-xdpi="90"
       inkscape:export-ydpi="90">
      <path
         inkscape:connector-curvature="0"
         d="m 0,0 c 0,-0.354 -0.286,-0.641 -0.64,-0.641 -0.353,0 -0.64,0.287 -0.64,0.641 0,0.354 0.287,0.64 0.64,0.64 C -0.286,0.64 0,0.354 0,0"
         style="fill:#373535;fill-opacity:1;fill-rule:nonzero;stroke:none"
         id="path3025" />
    </g>
    <g
       id="g3027"
       transform="matrix(7.6205736,0,0,-7.6294581,18.404259,-9.4155705)"
       inkscape:export-filename="C:\dev\SilverNote\SilverNote_WPF\SilverNote\Icon\icon_19x19.png"
       inkscape:export-xdpi="90"
       inkscape:export-ydpi="90">
      <path
         inkscape:connector-curvature="0"
         d="m 0,0 c 0,-0.354 -0.286,-0.64 -0.64,-0.64 -0.353,0 -0.64,0.286 -0.64,0.64 0,0.354 0.287,0.64 0.64,0.64 C -0.286,0.64 0,0.354 0,0"
         style="fill:#373535;fill-opacity:1;fill-rule:nonzero;stroke:none"
         id="path3029" />
    </g>
    <path
       style="fill:#000000;stroke:#b3b3b3;stroke-width:2.66772509px;stroke-linecap:butt;stroke-linejoin:miter;stroke-opacity:1"
       d="m 120.10551,10.965305 -96.020744,0"
       id="path3851-1-9"
       inkscape:connector-curvature="0"
       sodipodi:nodetypes="cc"
       inkscape:export-filename="C:\dev\SilverNote\SilverNote_WPF\SilverNote\Icon\icon_19x19.png"
       inkscape:export-xdpi="90"
       inkscape:export-ydpi="90" />
    <g
       id="g3031"
       transform="matrix(7.6205736,0,0,-7.6294581,18.404259,13.323284)"
       inkscape:export-filename="C:\dev\SilverNote\SilverNote_WPF\SilverNote\Icon\icon_19x19.png"
       inkscape:export-xdpi="90"
       inkscape:export-ydpi="90">
      <path
         inkscape:connector-curvature="0"
         d="m 0,0 c 0,-0.353 -0.286,-0.64 -0.64,-0.64 -0.353,0 -0.64,0.287 -0.64,0.64 0,0.354 0.287,0.641 0.64,0.641 C -0.286,0.641 0,0.354 0,0"
         style="fill:#373535;fill-opacity:1;fill-rule:nonzero;stroke:none"
         id="path3033" />
    </g>
    <path
       style="fill:#000000;stroke:#b3b3b3;stroke-width:2.66772509px;stroke-linecap:butt;stroke-linejoin:miter;stroke-opacity:1"
       d="m 120.10551,37.647373 -96.020744,0"
       id="path3851-1-8"
       inkscape:connector-curvature="0"
       sodipodi:nodetypes="cc"
       inkscape:export-filename="C:\dev\SilverNote\SilverNote_WPF\SilverNote\Icon\icon_19x19.png"
       inkscape:export-xdpi="90"
       inkscape:export-ydpi="90" />
    <g
       id="g3035"
       transform="matrix(7.6205736,0,0,-7.6294581,18.404259,36.055244)"
       inkscape:export-filename="C:\dev\SilverNote\SilverNote_WPF\SilverNote\Icon\icon_19x19.png"
       inkscape:export-xdpi="90"
       inkscape:export-ydpi="90">
      <path
         inkscape:connector-curvature="0"
         d="m 0,0 c 0,-0.354 -0.286,-0.64 -0.64,-0.64 -0.353,0 -0.64,0.286 -0.64,0.64 0,0.354 0.287,0.641 0.64,0.641 C -0.286,0.641 0,0.354 0,0"
         style="fill:#373535;fill-opacity:1;fill-rule:nonzero;stroke:none"
         id="path3037" />
    </g>
    <g
       style="fill:#000000;fill-opacity:1;stroke:#000000"
       id="g3073"
       transform="matrix(7.6205736,0,0,-7.6294581,-183.17284,1099.2903)"
       inkscape:export-filename="C:\dev\SilverNote\SilverNote_WPF\SilverNote\Icon\icon_19x19.png"
       inkscape:export-xdpi="90"
       inkscape:export-ydpi="90" />
    <path
       style="fill:#000000;stroke:#b3b3b3;stroke-width:2.66772509px;stroke-linecap:butt;stroke-linejoin:miter;stroke-opacity:1"
       d="m 120.10551,24.30634 -96.020744,0"
       id="path3851-1-48"
       inkscape:connector-curvature="0"
       sodipodi:nodetypes="cc"
       inkscape:export-filename="C:\dev\SilverNote\SilverNote_WPF\SilverNote\Icon\icon_19x19.png"
       inkscape:export-xdpi="90"
       inkscape:export-ydpi="90" />
    <g
       transform="matrix(7.6205736,0,0,-7.6294581,-184.61313,1094.618)"
       id="g3167"
       inkscape:export-filename="C:\dev\SilverNote\SilverNote_WPF\SilverNote\Icon\icon_19x19.png"
       inkscape:export-xdpi="90"
       inkscape:export-ydpi="90">
      <g
         id="g3169">
        <g
           id="g3175">
          <g
             id="g3177">
            <path
               inkscape:connector-curvature="0"
               d="m 30.679,150.718 c -0.633,-0.269 -1.118,-0.664 -1.455,-1.181 l 0,0 c -0.337,-0.516 -0.505,-1.071 -0.505,-1.665 l 0,0 c 0,-0.923 0.358,-1.704 1.074,-2.346 l 0,0 c 0.508,-0.456 1.394,-0.839 2.656,-1.152 l 0,0 c 0.98,-0.244 1.608,-0.414 1.883,-0.509 l 0,0 c 0.404,-0.143 0.685,-0.311 0.848,-0.505 l 0,0 c 0.161,-0.193 0.242,-0.428 0.242,-0.704 l 0,0 c 0,-0.428 -0.192,-0.803 -0.577,-1.125 l 0,0 c -0.384,-0.32 -0.955,-0.48 -1.713,-0.48 l 0,0 c -0.716,0 -1.284,0.18 -1.705,0.54 l 0,0 c -0.422,0.361 -0.701,0.925 -0.839,1.694 l 0,0 -2.289,-0.223 c 0.153,-1.304 0.624,-2.297 1.415,-2.978 l 0,0 c 0.789,-0.68 1.92,-1.021 3.394,-1.021 l 0,0 c 1.013,0 1.858,0.142 2.537,0.425 l 0,0 c 0.678,0.284 1.203,0.717 1.574,1.3 l 0,0 c 0.37,0.583 0.557,1.209 0.557,1.876 l 0,0 c 0,0.737 -0.156,1.356 -0.466,1.856 l 0,0 c -0.31,0.501 -0.739,0.897 -1.287,1.185 l 0,0 c -0.55,0.289 -1.396,0.569 -2.541,0.84 l 0,0 c -1.145,0.269 -1.866,0.529 -2.163,0.78 l 0,0 c -0.233,0.195 -0.35,0.431 -0.35,0.706 l 0,0 c 0,0.303 0.125,0.543 0.374,0.724 l 0,0 c 0.387,0.28 0.922,0.421 1.606,0.421 l 0,0 c 0.662,0 1.159,-0.132 1.491,-0.393 l 0,0 c 0.331,-0.262 0.548,-0.693 0.648,-1.293 l 0,0 2.354,0.104 c -0.038,1.07 -0.426,1.927 -1.166,2.568 l 0,0 c -0.739,0.642 -1.84,0.962 -3.303,0.962 l 0,0 c -0.896,0 -1.66,-0.135 -2.294,-0.406"
               style="fill:url(#linearGradient3179);stroke:none"
               id="path3189" />
          </g>
        </g>
      </g>
    </g>
  </g>
</svg>
